#define A_width 35
#define A_height 43
static char A_bits[] = {
  0x00, 0x00, 0x00, 0x00, 0x00,
  0x00, 0x00, 0x00, 0x00, 0x00,
  0x00, 0x00, 0x00, 0x00, 0x00,
  0x00, 0x00, 0x00, 0x00, 0x00,
  0x00, 0x00, 0x00, 0x00, 0x00,
  0x00, 0x00, 0x00, 0x00, 0x00,
  0x00, 0x00, 0x00, 0x00, 0x00,
  0x00, 0x00, 0x00, 0x00, 0x00,
  0x00, 0xE0, 0x1F, 0x00, 0x00,
  0x00, 0xE0, 0x3F, 0x00, 0x00,
  0x00, 0xF0, 0x1F, 0x00, 0x00,
  0x00, 0xF0, 0x3F, 0x00, 0x00, 
  0x00, 0xF8, 0x7E, 0x00, 0x00,
  0x00, 0xF8, 0x7C, 0x00, 0x00,
  0x00, 0xFC, 0xFC, 0x00, 0x00,
  0x00, 0x7C, 0xF8, 0x00, 0x00,
  0x00, 0x7E, 0xF8, 0x01, 0x00,
  0x00, 0x3E, 0xF0, 0x01, 0x00,
  0x00, 0x3F, 0xF0, 0x03, 0x00,
  0x00, 0x1F, 0xF0, 0x03, 0x00,
  0x80, 0x0F, 0xE0, 0x07, 0x00,
  0x80, 0x1F, 0xC0, 0x07, 0x00,
  0xC0, 0x0F, 0xC0, 0x0F, 0x00,
  0xC0, 0x07, 0xC0, 0x0F, 0x00, 
  0xE0, 0xFF, 0xFE, 0x1F, 0x00,
  0xE0, 0xFF, 0xFF, 0x1F, 0x00,
  0xF0, 0xFF, 0xFF, 0x1F, 0x00,
  0xF0, 0x83, 0x04, 0x3F, 0x00,
  0xF0, 0x01, 0x00, 0x7E, 0x00,
  0xF8, 0x01, 0x00, 0x7E, 0x00,
  0xFC, 0x00, 0x00, 0x7E, 0x00,
  0xFC, 0x00, 0x00, 0xFC, 0x00,
  0xFC, 0x00, 0x00, 0xF8, 0x01,
  0x3E, 0x00, 0x00, 0x78, 0x00,
  0x00, 0x00, 0x00, 0x00, 0x00,
  0x00, 0x00, 0x00, 0x00, 0x00, 
  0x00, 0x00, 0x00, 0x00, 0x00,
  0x00, 0x00, 0x00, 0x00, 0x00,
  0x00, 0x00, 0x00, 0x00, 0x00,
  0x00, 0x00, 0x00, 0x00, 0x00,
  0x00, 0x00, 0x00, 0x00, 0x00,
  0x00, 0x00, 0x00, 0x00, 0x00,
  0x00, 0x00, 0x00, 0x00, 0x00, };
