#define A_width 16
#define A_height 16
static char A_bits[] = {
  0x00, 0x00, 0x00, 0x00, 0xE0, 0x00, 0xF0, 0x03, 0xF0, 0x03, 0xF8, 0x03, 
  0xA8, 0x0E, 0x1C, 0x06, 0xFC, 0x0F, 0x1E, 0x0F, 0x07, 0x3C, 0x06, 0x00, 
  0x00, 0x00, 0x00, 0x00, 0x00, 0x00, 0x00, 0x00, };
